<svg width="13" height="13" viewBox="0 0 13 13" fill="none" xmlns="http://www.w3.org/2000/svg">
<g clip-path="url(#clip0_31_193)">
<path d="M1.85714 1.39286C1.60179 1.39286 1.39286 1.60179 1.39286 1.85714V11.1429C1.39286 11.3982 1.60179 11.6071 1.85714 11.6071H11.1429C11.3982 11.6071 11.6071 11.3982 11.6071 11.1429V1.85714C11.6071 1.60179 11.3982 1.39286 11.1429 1.39286H1.85714ZM0 1.85714C0 0.832812 0.832812 0 1.85714 0H11.1429C12.1672 0 13 0.832812 13 1.85714V11.1429C13 12.1672 12.1672 13 11.1429 13H1.85714C0.832812 13 0 12.1672 0 11.1429V1.85714ZM5.80357 9.05357V7.19643H3.94643C3.56049 7.19643 3.25 6.88594 3.25 6.5C3.25 6.11406 3.56049 5.80357 3.94643 5.80357H5.80357V3.94643C5.80357 3.56049 6.11406 3.25 6.5 3.25C6.88594 3.25 7.19643 3.56049 7.19643 3.94643V5.80357H9.05357C9.43951 5.80357 9.75 6.11406 9.75 6.5C9.75 6.88594 9.43951 7.19643 9.05357 7.19643H7.19643V9.05357C7.19643 9.43951 6.88594 9.75 6.5 9.75C6.11406 9.75 5.80357 9.43951 5.80357 9.05357Z" fill="#111827"/>
</g>
<defs>
<clipPath id="clip0_31_193">
<rect width="13" height="13" fill="white"/>
</clipPath>
</defs>
</svg>
