<svg width="20" height="21" viewBox="0 0 20 21" fill="none" xmlns="http://www.w3.org/2000/svg">
<path d="M20 16.75C20 18.1289 18.8789 19.25 17.5 19.25H2.5C1.12109 19.25 0 18.1289 0 16.75V4.25C0 2.87109 1.12109 1.75 2.5 1.75H7.5C8.28516 1.75 9.02734 2.12109 9.5 2.75L10.25 3.75C10.4844 4.06641 10.8555 4.25 11.25 4.25H17.5C18.8789 4.25 20 5.37109 20 6.75V16.75ZM9.0625 15.1875C9.0625 15.707 9.48047 16.125 10 16.125C10.5195 16.125 10.9375 15.707 10.9375 15.1875V12.6875H13.4375C13.957 12.6875 14.375 12.2695 14.375 11.75C14.375 11.2305 13.957 10.8125 13.4375 10.8125H10.9375V8.3125C10.9375 7.79297 10.5195 7.375 10 7.375C9.48047 7.375 9.0625 7.79297 9.0625 8.3125V10.8125H6.5625C6.04297 10.8125 5.625 11.2305 5.625 11.75C5.625 12.2695 6.04297 12.6875 6.5625 12.6875H9.0625V15.1875Z" fill="#7582EB"/>
</svg>
