<svg width="18" height="18" viewBox="0 0 18 18" fill="none" xmlns="http://www.w3.org/2000/svg">
<path d="M2 3.5C1.725 3.5 1.5 3.725 1.5 4V14C1.5 14.275 1.725 14.5 2 14.5H16C16.275 14.5 16.5 14.275 16.5 14V4C16.5 3.725 16.275 3.5 16 3.5H2ZM0 4C0 2.89688 0.896875 2 2 2H16C17.1031 2 18 2.89688 18 4V14C18 15.1031 17.1031 16 16 16H2C0.896875 16 0 15.1031 0 14V4ZM3 6C3 5.73478 3.10536 5.48043 3.29289 5.29289C3.48043 5.10536 3.73478 5 4 5C4.26522 5 4.51957 5.10536 4.70711 5.29289C4.89464 5.48043 5 5.73478 5 6C5 6.26522 4.89464 6.51957 4.70711 6.70711C4.51957 6.89464 4.26522 7 4 7C3.73478 7 3.48043 6.89464 3.29289 6.70711C3.10536 6.51957 3 6.26522 3 6ZM6.25 6C6.25 5.58437 6.58437 5.25 7 5.25H14C14.4156 5.25 14.75 5.58437 14.75 6C14.75 6.41563 14.4156 6.75 14 6.75H7C6.58437 6.75 6.25 6.41563 6.25 6ZM6.25 9C6.25 8.58437 6.58437 8.25 7 8.25H14C14.4156 8.25 14.75 8.58437 14.75 9C14.75 9.41563 14.4156 9.75 14 9.75H7C6.58437 9.75 6.25 9.41563 6.25 9ZM6.25 12C6.25 11.5844 6.58437 11.25 7 11.25H14C14.4156 11.25 14.75 11.5844 14.75 12C14.75 12.4156 14.4156 12.75 14 12.75H7C6.58437 12.75 6.25 12.4156 6.25 12ZM4 10C3.73478 10 3.48043 9.89464 3.29289 9.70711C3.10536 9.51957 3 9.26522 3 9C3 8.73478 3.10536 8.48043 3.29289 8.29289C3.48043 8.10536 3.73478 8 4 8C4.26522 8 4.51957 8.10536 4.70711 8.29289C4.89464 8.48043 5 8.73478 5 9C5 9.26522 4.89464 9.51957 4.70711 9.70711C4.51957 9.89464 4.26522 10 4 10ZM3 12C3 11.7348 3.10536 11.4804 3.29289 11.2929C3.48043 11.1054 3.73478 11 4 11C4.26522 11 4.51957 11.1054 4.70711 11.2929C4.89464 11.4804 5 11.7348 5 12C5 12.2652 4.89464 12.5196 4.70711 12.7071C4.51957 12.8946 4.26522 13 4 13C3.73478 13 3.48043 12.8946 3.29289 12.7071C3.10536 12.5196 3 12.2652 3 12Z" fill="white" fill-opacity="0.86"/>
</svg>
