<svg width="10" height="10" viewBox="0 0 10 10" fill="none" xmlns="http://www.w3.org/2000/svg">
<g clip-path="url(#clip0_34_273)">
<path d="M10.0117 2.75117C9.96556 2.57459 9.892 2.41609 9.74331 2.29831C9.49417 2.10092 9.13236 2.09678 8.8828 2.29573C8.8345 2.33423 8.78908 2.37678 8.74536 2.4205C7.52747 3.63789 6.30994 4.85562 5.09269 6.07362C5.06525 6.10109 5.04153 6.13228 4.98622 6.19631C4.95744 6.14737 4.94367 6.10748 4.91683 6.08059C3.69105 4.85264 2.46364 3.62636 1.23783 2.39845C1.02172 2.18198 0.77436 2.09137 0.473916 2.18414C0.0273601 2.32206 -0.153862 2.89192 0.131332 3.26203C0.163082 3.30326 0.197694 3.34273 0.234471 3.37953C1.64547 4.79123 3.05667 6.2027 4.46839 7.6137C4.73222 7.87739 5.06011 7.93142 5.35769 7.75612C5.42958 7.71375 5.4935 7.65456 5.55305 7.59506C6.92842 6.22151 8.30186 4.84606 9.67822 3.47353C9.83075 3.32142 9.96683 3.16448 10.0118 2.94687C10.0117 2.88164 10.0117 2.81639 10.0117 2.75117Z" fill="white" fill-opacity="0.86"/>
</g>
<defs>
<clipPath id="clip0_34_273">
<rect width="10" height="10" fill="white" transform="matrix(0 1 1 0 0 0)"/>
</clipPath>
</defs>
</svg>
