<svg width="5" height="16" viewBox="0 0 5 16" fill="none" xmlns="http://www.w3.org/2000/svg">
<g clip-path="url(#clip0_281_97)">
<path d="M2.5 11.6111C1.91984 11.6111 1.36344 11.816 0.953204 12.1806C0.542968 12.5453 0.3125 13.0399 0.3125 13.5556C0.3125 14.0713 0.542968 14.5658 0.953204 14.9305C1.36344 15.2951 1.91984 15.5 2.5 15.5C3.08016 15.5 3.63656 15.2951 4.0468 14.9305C4.45703 14.5658 4.6875 14.0713 4.6875 13.5556C4.6875 13.0399 4.45703 12.5453 4.0468 12.1806C3.63656 11.816 3.08016 11.6111 2.5 11.6111ZM2.5 6.05556C1.91984 6.05556 1.36344 6.26042 0.953204 6.62507C0.542968 6.98972 0.3125 7.4843 0.3125 8C0.3125 8.5157 0.542968 9.01028 0.953204 9.37493C1.36344 9.73958 1.91984 9.94444 2.5 9.94444C3.08016 9.94444 3.63656 9.73958 4.0468 9.37493C4.45703 9.01028 4.6875 8.5157 4.6875 8C4.6875 7.4843 4.45703 6.98972 4.0468 6.62507C3.63656 6.26042 3.08016 6.05556 2.5 6.05556ZM4.6875 2.44444C4.6875 1.92875 4.45703 1.43417 4.0468 1.06951C3.63656 0.704861 3.08016 0.5 2.5 0.5C1.91984 0.5 1.36344 0.704861 0.953204 1.06951C0.542968 1.43417 0.3125 1.92875 0.3125 2.44444C0.3125 2.96014 0.542968 3.45472 0.953204 3.81937C1.36344 4.18403 1.91984 4.38889 2.5 4.38889C3.08016 4.38889 3.63656 4.18403 4.0468 3.81937C4.45703 3.45472 4.6875 2.96014 4.6875 2.44444Z" fill="#5D626C"/>
</g>
<defs>
<clipPath id="clip0_281_97">
<rect width="5" height="15" fill="white" transform="translate(0 0.5)"/>
</clipPath>
</defs>
</svg>
