<svg width="18" height="18" viewBox="0 0 18 18" fill="none" xmlns="http://www.w3.org/2000/svg">
<path d="M1.125 1.125C1.74727 1.125 2.25 1.62773 2.25 2.25V14.0625C2.25 14.3719 2.50312 14.625 2.8125 14.625H16.875C17.4973 14.625 18 15.1277 18 15.75C18 16.3723 17.4973 16.875 16.875 16.875H2.8125C1.25859 16.875 0 15.6164 0 14.0625V2.25C0 1.62773 0.502734 1.125 1.125 1.125ZM5.625 7.875C6.24727 7.875 6.75 8.37773 6.75 9V11.25C6.75 11.8723 6.24727 12.375 5.625 12.375C5.00273 12.375 4.5 11.8723 4.5 11.25V9C4.5 8.37773 5.00273 7.875 5.625 7.875ZM10.125 5.625V11.25C10.125 11.8723 9.62227 12.375 9 12.375C8.37773 12.375 7.875 11.8723 7.875 11.25V5.625C7.875 5.00273 8.37773 4.5 9 4.5C9.62227 4.5 10.125 5.00273 10.125 5.625ZM12.375 6.75C12.9973 6.75 13.5 7.25273 13.5 7.875V11.25C13.5 11.8723 12.9973 12.375 12.375 12.375C11.7527 12.375 11.25 11.8723 11.25 11.25V7.875C11.25 7.25273 11.7527 6.75 12.375 6.75ZM16.875 3.375V11.25C16.875 11.8723 16.3723 12.375 15.75 12.375C15.1277 12.375 14.625 11.8723 14.625 11.25V3.375C14.625 2.75273 15.1277 2.25 15.75 2.25C16.3723 2.25 16.875 2.75273 16.875 3.375Z" fill="#5D626C"/>
</svg>
