<svg width="16" height="16" viewBox="0 0 16 16" fill="none" xmlns="http://www.w3.org/2000/svg">
<path d="M5.225 0.553125C5.39375 0.2125 5.74062 0 6.11875 0H9.88125C10.2594 0 10.6062 0.2125 10.775 0.553125L11 1H14C14.5531 1 15 1.44687 15 2C15 2.55312 14.5531 3 14 3H2C1.44687 3 1 2.55312 1 2C1 1.44687 1.44687 1 2 1H5L5.225 0.553125ZM2 4H14V14C14 15.1031 13.1031 16 12 16H4C2.89688 16 2 15.1031 2 14V4ZM5 6C4.725 6 4.5 6.225 4.5 6.5V13.5C4.5 13.775 4.725 14 5 14C5.275 14 5.5 13.775 5.5 13.5V6.5C5.5 6.225 5.275 6 5 6ZM8 6C7.725 6 7.5 6.225 7.5 6.5V13.5C7.5 13.775 7.725 14 8 14C8.275 14 8.5 13.775 8.5 13.5V6.5C8.5 6.225 8.275 6 8 6ZM11 6C10.725 6 10.5 6.225 10.5 6.5V13.5C10.5 13.775 10.725 14 11 14C11.275 14 11.5 13.775 11.5 13.5V6.5C11.5 6.225 11.275 6 11 6Z" fill="#7582EB"/>
</svg>
