<svg width="16" height="16" viewBox="0 0 16 16" fill="none" xmlns="http://www.w3.org/2000/svg">
<g clip-path="url(#clip0_213_41)">
<path d="M8 0C5.87827 0 3.84344 0.842855 2.34315 2.34315C0.842855 3.84344 0 5.87827 0 8C0 10.1217 0.842855 12.1566 2.34315 13.6569C3.84344 15.1571 5.87827 16 8 16C10.1217 16 12.1566 15.1571 13.6569 13.6569C15.1571 12.1566 16 10.1217 16 8C16 5.87827 15.1571 3.84344 13.6569 2.34315C12.1566 0.842855 10.1217 0 8 0ZM11.7781 9.20625L8.43125 12.3281C8.3125 12.4375 8.15937 12.5 8 12.5C7.84063 12.5 7.68437 12.4375 7.56875 12.3281L4.22188 9.20625C4.08125 9.075 4 8.89062 4 8.69687C4 8.3125 4.3125 8 4.69688 8H6.5V5C6.5 4.44687 6.94687 4 7.5 4H8.5C9.05313 4 9.5 4.44687 9.5 5V8H11.3031C11.6875 8 12 8.3125 12 8.69687C12 8.89062 11.9187 9.075 11.7781 9.20625Z" fill="#7582EB"/>
</g>
<defs>
<clipPath id="clip0_213_41">
<rect width="16" height="16" fill="white"/>
</clipPath>
</defs>
</svg>
