<svg width="16" height="16" viewBox="0 0 16 16" fill="none" xmlns="http://www.w3.org/2000/svg">
<g clip-path="url(#clip0_34_281)">
<path d="M11.3344 0.603149L9.8219 2.11565L13.8844 6.17815L15.3969 4.66565C16.1782 3.8844 16.1782 2.61877 15.3969 1.83752L14.1657 0.603149C13.3844 -0.178101 12.1188 -0.178101 11.3375 0.603149H11.3344ZM9.11565 2.8219L1.83128 10.1094C1.50628 10.4344 1.26878 10.8375 1.13753 11.2781L0.0312776 15.0375C-0.0468474 15.3031 0.0250276 15.5875 0.218778 15.7813C0.412528 15.975 0.696903 16.0469 0.959402 15.9719L4.71878 14.8656C5.1594 14.7344 5.56253 14.4969 5.88753 14.1719L13.1782 6.8844L9.11565 2.8219Z" fill="#7582EB"/>
</g>
<defs>
<clipPath id="clip0_34_281">
<rect width="16" height="16" fill="white"/>
</clipPath>
</defs>
</svg>
