<svg width="14" height="14" viewBox="0 0 14 14" fill="none" xmlns="http://www.w3.org/2000/svg">
<g clip-path="url(#clip0_59_271)">
<path d="M13.5884 2.38837C14.1352 1.84149 14.1352 0.953369 13.5884 0.406494C13.0415 -0.140381 12.1534 -0.140381 11.6065 0.406494L6.99962 5.01774L2.38837 0.410869C1.84149 -0.136006 0.953369 -0.136006 0.406494 0.410869C-0.140381 0.957744 -0.140381 1.84587 0.406494 2.39274L5.01774 6.99962L0.410869 11.6109C-0.136006 12.1577 -0.136006 13.0459 0.410869 13.5927C0.957744 14.1396 1.84587 14.1396 2.39274 13.5927L6.99962 8.98149L11.6109 13.5884C12.1577 14.1352 13.0459 14.1352 13.5927 13.5884C14.1396 13.0415 14.1396 12.1534 13.5927 11.6065L8.98149 6.99962L13.5884 2.38837Z" fill="white" fill-opacity="0.86"/>
</g>
<defs>
<clipPath id="clip0_59_271">
<rect width="14" height="14" fill="white"/>
</clipPath>
</defs>
</svg>
