<svg width="12" height="13" viewBox="0 0 12 13" fill="none" xmlns="http://www.w3.org/2000/svg">
<g clip-path="url(#clip0_59_256)">
<path d="M11.6474 2.54738C12.1161 2.07863 12.1161 1.31738 11.6474 0.848633C11.1786 0.379883 10.4174 0.379883 9.94863 0.848633L5.99988 4.80113L2.04738 0.852383C1.57863 0.383633 0.817383 0.383633 0.348633 0.852383C-0.120117 1.32113 -0.120117 2.08238 0.348633 2.55113L4.30113 6.49988L0.352383 10.4524C-0.116367 10.9211 -0.116367 11.6824 0.352383 12.1511C0.821133 12.6199 1.58238 12.6199 2.05113 12.1511L5.99988 8.19863L9.95238 12.1474C10.4211 12.6161 11.1824 12.6161 11.6511 12.1474C12.1199 11.6786 12.1199 10.9174 11.6511 10.4486L7.69863 6.49988L11.6474 2.54738Z" fill="#7582EB"/>
</g>
<defs>
<clipPath id="clip0_59_256">
<rect width="12" height="12" fill="white" transform="translate(0 0.5)"/>
</clipPath>
</defs>
</svg>
