<svg width="15" height="16" viewBox="0 0 15 16" fill="none" xmlns="http://www.w3.org/2000/svg">
<path d="M0.9375 3.3125C0.9375 2.79395 1.35645 2.375 1.875 2.375H13.125C13.6436 2.375 14.0625 2.79395 14.0625 3.3125C14.0625 3.83105 13.6436 4.25 13.125 4.25H1.875C1.35645 4.25 0.9375 3.83105 0.9375 3.3125ZM0.9375 8C0.9375 7.48145 1.35645 7.0625 1.875 7.0625H13.125C13.6436 7.0625 14.0625 7.48145 14.0625 8C14.0625 8.51855 13.6436 8.9375 13.125 8.9375H1.875C1.35645 8.9375 0.9375 8.51855 0.9375 8ZM14.0625 12.6875C14.0625 13.2061 13.6436 13.625 13.125 13.625H1.875C1.35645 13.625 0.9375 13.2061 0.9375 12.6875C0.9375 12.1689 1.35645 11.75 1.875 11.75H13.125C13.6436 11.75 14.0625 12.1689 14.0625 12.6875Z" fill="white" fill-opacity="0.86"/>
</svg>
