<svg width="16" height="16" viewBox="0 0 16 16" fill="none" xmlns="http://www.w3.org/2000/svg">
<g clip-path="url(#clip0_55_11)">
<path d="M2.28571 1.71429C1.97143 1.71429 1.71429 1.97143 1.71429 2.28571V13.7143C1.71429 14.0286 1.97143 14.2857 2.28571 14.2857H13.7143C14.0286 14.2857 14.2857 14.0286 14.2857 13.7143V2.28571C14.2857 1.97143 14.0286 1.71429 13.7143 1.71429H2.28571ZM0 2.28571C0 1.025 1.025 0 2.28571 0H13.7143C14.975 0 16 1.025 16 2.28571V13.7143C16 14.975 14.975 16 13.7143 16H2.28571C1.025 16 0 14.975 0 13.7143V2.28571ZM5.42857 7.14286H10.5714C11.0464 7.14286 11.4286 7.525 11.4286 8C11.4286 8.475 11.0464 8.85714 10.5714 8.85714H5.42857C4.95357 8.85714 4.57143 8.475 4.57143 8C4.57143 7.525 4.95357 7.14286 5.42857 7.14286Z" fill="#D14343"/>
</g>
<defs>
<clipPath id="clip0_55_11">
<rect width="16" height="16" fill="white"/>
</clipPath>
</defs>
</svg>
