<svg width="22" height="22" viewBox="0 0 22 22" fill="none" xmlns="http://www.w3.org/2000/svg">
<g clip-path="url(#clip0_281_71)">
<path d="M12.6923 1.69231C12.6923 0.75625 11.9361 0 11 0C10.0639 0 9.30769 0.75625 9.30769 1.69231V9.30769H1.69231C0.75625 9.30769 0 10.0639 0 11C0 11.9361 0.75625 12.6923 1.69231 12.6923H9.30769V20.3077C9.30769 21.2438 10.0639 22 11 22C11.9361 22 12.6923 21.2438 12.6923 20.3077V12.6923H20.3077C21.2438 12.6923 22 11.9361 22 11C22 10.0639 21.2438 9.30769 20.3077 9.30769H12.6923V1.69231Z" fill="#7582EB"/>
</g>
<defs>
<clipPath id="clip0_281_71">
<rect width="22" height="22" fill="white"/>
</clipPath>
</defs>
</svg>
