<svg width="13" height="13" viewBox="0 0 13 13" fill="none" xmlns="http://www.w3.org/2000/svg">
<g clip-path="url(#clip0_37_400)">
<path d="M3.1916 4.06252H4.46875C4.91816 4.06252 5.28125 4.42561 5.28125 4.87502C5.28125 5.32444 4.91816 5.68752 4.46875 5.68752H1.21875C0.769336 5.68752 0.40625 5.32444 0.40625 4.87502V1.62502C0.40625 1.17561 0.769336 0.812524 1.21875 0.812524C1.66816 0.812524 2.03125 1.17561 2.03125 1.62502V2.92502L2.47812 2.47815C4.6998 0.25647 8.3002 0.25647 10.5219 2.47815C12.7436 4.69983 12.7436 8.30022 10.5219 10.5219C8.3002 12.7436 4.6998 12.7436 2.47812 10.5219C2.16074 10.2045 2.16074 9.68909 2.47812 9.3717C2.79551 9.05432 3.31094 9.05432 3.62832 9.3717C5.21523 10.9586 7.7873 10.9586 9.37422 9.3717C10.9611 7.78479 10.9611 5.21272 9.37422 3.62581C7.7873 2.03889 5.21523 2.03889 3.62832 3.62581L3.1916 4.06252Z" fill="#7582EB"/>
</g>
<defs>
<clipPath id="clip0_37_400">
<rect width="13" height="13" fill="white"/>
</clipPath>
</defs>
</svg>
