<svg width="13" height="13" viewBox="0 0 13 13" fill="none" xmlns="http://www.w3.org/2000/svg">
<g clip-path="url(#clip0_59_248)">
<path d="M1.39286 1.85714V11.1429C1.39286 11.3982 1.60179 11.6071 1.85714 11.6071H11.1429C11.3982 11.6071 11.6071 11.3982 11.6071 11.1429V4.01897C11.6071 3.8971 11.5578 3.77812 11.4708 3.69107L12.4545 2.70737C12.8027 3.05558 12.9971 3.52857 12.9971 4.02187V11.1429C12.9971 12.1672 12.1643 13 11.14 13H1.85714C0.832812 13 0 12.1672 0 11.1429V1.85714C0 0.832812 0.832812 0 1.85714 0H8.98103C9.47433 0 9.94732 0.19442 10.2955 0.542634L12.4574 2.70446L11.4737 3.68817L9.30893 1.52924C9.30022 1.52054 9.29442 1.51473 9.28571 1.50603V4.41071C9.28571 4.79665 8.97522 5.10714 8.58929 5.10714H3.01786C2.63192 5.10714 2.32143 4.79665 2.32143 4.41071V1.39286H1.85714C1.60179 1.39286 1.39286 1.60179 1.39286 1.85714ZM3.71429 1.39286V3.71429H7.89286V1.39286H3.71429ZM4.64286 8.35714C4.64286 7.8646 4.83852 7.39223 5.1868 7.04394C5.53508 6.69566 6.00745 6.5 6.5 6.5C6.99254 6.5 7.46492 6.69566 7.8132 7.04394C8.16148 7.39223 8.35714 7.8646 8.35714 8.35714C8.35714 8.84969 8.16148 9.32206 7.8132 9.67034C7.46492 10.0186 6.99254 10.2143 6.5 10.2143C6.00745 10.2143 5.53508 10.0186 5.1868 9.67034C4.83852 9.32206 4.64286 8.84969 4.64286 8.35714Z" fill="#111827"/>
</g>
<defs>
<clipPath id="clip0_59_248">
<rect width="13" height="13" fill="white"/>
</clipPath>
</defs>
</svg>
