<svg width="18" height="18" viewBox="0 0 18 18" fill="none" xmlns="http://www.w3.org/2000/svg">
<path d="M3.9375 3.65625C4.16128 3.65625 4.37589 3.56736 4.53412 3.40912C4.69236 3.25089 4.78125 3.03628 4.78125 2.8125C4.78125 2.58872 4.69236 2.37411 4.53412 2.21588C4.37589 2.05764 4.16128 1.96875 3.9375 1.96875C3.71372 1.96875 3.49911 2.05764 3.34088 2.21588C3.18264 2.37411 3.09375 2.58872 3.09375 2.8125C3.09375 3.03628 3.18264 3.25089 3.34088 3.40912C3.49911 3.56736 3.71372 3.65625 3.9375 3.65625ZM6.75 2.8125C6.75 3.96562 6.05742 4.95703 5.0625 5.38945V8.47617C5.72344 8.09297 6.49336 7.875 7.3125 7.875H10.6875C11.9285 7.875 12.9375 6.86602 12.9375 5.625V5.38945C11.9426 4.95703 11.25 3.96562 11.25 2.8125C11.25 1.25859 12.5086 0 14.0625 0C15.6164 0 16.875 1.25859 16.875 2.8125C16.875 3.96562 16.1824 4.95703 15.1875 5.38945V5.625C15.1875 8.11055 13.173 10.125 10.6875 10.125H7.3125C6.07148 10.125 5.0625 11.134 5.0625 12.375V12.6105C6.05742 13.043 6.75 14.0344 6.75 15.1875C6.75 16.7414 5.49141 18 3.9375 18C2.38359 18 1.125 16.7414 1.125 15.1875C1.125 14.0344 1.81758 13.043 2.8125 12.6105V12.375V5.38945C1.81758 4.95703 1.125 3.96562 1.125 2.8125C1.125 1.25859 2.38359 0 3.9375 0C5.49141 0 6.75 1.25859 6.75 2.8125ZM14.9062 2.8125C14.9062 2.58872 14.8174 2.37411 14.6591 2.21588C14.5009 2.05764 14.2863 1.96875 14.0625 1.96875C13.8387 1.96875 13.6241 2.05764 13.4659 2.21588C13.3076 2.37411 13.2188 2.58872 13.2188 2.8125C13.2188 3.03628 13.3076 3.25089 13.4659 3.40912C13.6241 3.56736 13.8387 3.65625 14.0625 3.65625C14.2863 3.65625 14.5009 3.56736 14.6591 3.40912C14.8174 3.25089 14.9062 3.03628 14.9062 2.8125ZM3.9375 16.0312C4.16128 16.0312 4.37589 15.9424 4.53412 15.7841C4.69236 15.6259 4.78125 15.4113 4.78125 15.1875C4.78125 14.9637 4.69236 14.7491 4.53412 14.5909C4.37589 14.4326 4.16128 14.3438 3.9375 14.3438C3.71372 14.3438 3.49911 14.4326 3.34088 14.5909C3.18264 14.7491 3.09375 14.9637 3.09375 15.1875C3.09375 15.4113 3.18264 15.6259 3.34088 15.7841C3.49911 15.9424 3.71372 16.0312 3.9375 16.0312Z" fill="#5D626C"/>
</svg>
