<svg width="18" height="18" viewBox="0 0 18 18" fill="none" xmlns="http://www.w3.org/2000/svg">
<g clip-path="url(#clip0_281_91)">
<path d="M8.24414 0.200439C8.73281 0.0246582 9.26719 0.0246582 9.75938 0.200439L16.5094 2.61216C17.4023 2.93208 18 3.77935 18 4.73208V13.268C18 14.2172 17.4023 15.068 16.5059 15.3879L9.75586 17.7997C9.26719 17.9754 8.73281 17.9754 8.24062 17.7997L1.49063 15.3879C0.597656 15.068 0 14.2207 0 13.268V4.73208C0 3.78286 0.597656 2.93208 1.49414 2.61216L8.24414 0.200439ZM9 2.32036L2.89336 4.50005L9 6.67974L15.1066 4.50005L9 2.32036ZM10.125 15.279L15.75 13.2715V6.66216L10.125 8.66958V15.279Z" fill="#5D626C"/>
</g>
<defs>
<clipPath id="clip0_281_91">
<rect width="18" height="18" fill="white"/>
</clipPath>
</defs>
</svg>
