<svg width="16" height="16" viewBox="0 0 16 16" fill="none" xmlns="http://www.w3.org/2000/svg">
<g clip-path="url(#clip0_213_43)">
<path d="M8 16C10.1217 16 12.1566 15.1571 13.6569 13.6569C15.1571 12.1566 16 10.1217 16 8C16 5.87827 15.1571 3.84344 13.6569 2.34315C12.1566 0.842855 10.1217 0 8 0C5.87827 0 3.84344 0.842855 2.34315 2.34315C0.842855 3.84344 0 5.87827 0 8C0 10.1217 0.842855 12.1566 2.34315 13.6569C3.84344 15.1571 5.87827 16 8 16ZM4.22188 6.79375L7.56875 3.67188C7.6875 3.5625 7.84063 3.5 8 3.5C8.15937 3.5 8.31562 3.5625 8.43125 3.67188L11.7781 6.79375C11.9187 6.925 12 7.10937 12 7.30312C12 7.6875 11.6875 8 11.3031 8H9.5V11C9.5 11.5531 9.05313 12 8.5 12H7.5C6.94687 12 6.5 11.5531 6.5 11V8H4.69688C4.3125 8 4 7.6875 4 7.30312C4 7.10937 4.08125 6.925 4.22188 6.79375Z" fill="#7582EB"/>
</g>
<defs>
<clipPath id="clip0_213_43">
<rect width="16" height="16" fill="white"/>
</clipPath>
</defs>
</svg>
