<svg width="20" height="16" viewBox="0 0 20 16" fill="none" xmlns="http://www.w3.org/2000/svg">
<g clip-path="url(#clip0_513_8)">
<path d="M5.26388 0.361111C5.05208 0.131944 4.75694 0 4.44444 0C4.13194 0 3.8368 0.131944 3.62499 0.361111L0.569438 3.69444C0.156243 4.14583 0.184021 4.85069 0.638882 5.26389C1.09374 5.67708 1.79513 5.64931 2.20833 5.19444L3.33333 3.96875V14.4444C3.33333 15.059 3.82985 15.5556 4.44444 15.5556C5.05902 15.5556 5.55555 15.059 5.55555 14.4444V3.96875L6.68055 5.19792C7.09374 5.64931 7.7986 5.68055 8.24999 5.26736C8.70138 4.85417 8.73263 4.14931 8.31944 3.69792L5.26388 0.364583V0.361111ZM11.1111 15.5556H12.2222C12.8368 15.5556 13.3333 15.059 13.3333 14.4444C13.3333 13.8299 12.8368 13.3333 12.2222 13.3333H11.1111C10.4965 13.3333 9.99999 13.8299 9.99999 14.4444C9.99999 15.059 10.4965 15.5556 11.1111 15.5556ZM11.1111 11.1111H14.4444C15.059 11.1111 15.5555 10.6146 15.5555 10C15.5555 9.38542 15.059 8.88889 14.4444 8.88889H11.1111C10.4965 8.88889 9.99999 9.38542 9.99999 10C9.99999 10.6146 10.4965 11.1111 11.1111 11.1111ZM11.1111 6.66667H16.6667C17.2812 6.66667 17.7778 6.17014 17.7778 5.55556C17.7778 4.94097 17.2812 4.44444 16.6667 4.44444H11.1111C10.4965 4.44444 9.99999 4.94097 9.99999 5.55556C9.99999 6.17014 10.4965 6.66667 11.1111 6.66667ZM11.1111 2.22222H18.8889C19.5035 2.22222 20 1.72569 20 1.11111C20 0.496528 19.5035 0 18.8889 0H11.1111C10.4965 0 9.99999 0.496528 9.99999 1.11111C9.99999 1.72569 10.4965 2.22222 11.1111 2.22222Z" fill="#111827"/>
</g>
<defs>
<clipPath id="clip0_513_8">
<rect width="20" height="15.5556" fill="white"/>
</clipPath>
</defs>
</svg>
