<svg width="20" height="16" viewBox="0 0 20 16" fill="none" xmlns="http://www.w3.org/2000/svg">
<g clip-path="url(#clip0_513_6)">
<path d="M5.26388 15.1944C5.05208 15.4236 4.75694 15.5556 4.44444 15.5556C4.13194 15.5556 3.8368 15.4236 3.62499 15.1944L0.569438 11.8611C0.156243 11.4097 0.184021 10.7049 0.638882 10.2917C1.09374 9.87847 1.79513 9.90625 2.20833 10.3611L3.33333 11.5868V1.11111C3.33333 0.496528 3.82985 0 4.44444 0C5.05902 0 5.55555 0.496528 5.55555 1.11111V11.5868L6.68055 10.3576C7.09374 9.90625 7.7986 9.875 8.24999 10.2882C8.70138 10.7014 8.73263 11.4062 8.31944 11.8576L5.26388 15.191V15.1944ZM11.1111 0H12.2222C12.8368 0 13.3333 0.496528 13.3333 1.11111C13.3333 1.72569 12.8368 2.22222 12.2222 2.22222H11.1111C10.4965 2.22222 9.99999 1.72569 9.99999 1.11111C9.99999 0.496528 10.4965 0 11.1111 0ZM11.1111 4.44444H14.4444C15.059 4.44444 15.5555 4.94097 15.5555 5.55556C15.5555 6.17014 15.059 6.66667 14.4444 6.66667H11.1111C10.4965 6.66667 9.99999 6.17014 9.99999 5.55556C9.99999 4.94097 10.4965 4.44444 11.1111 4.44444ZM11.1111 8.88889H16.6667C17.2812 8.88889 17.7778 9.38542 17.7778 10C17.7778 10.6146 17.2812 11.1111 16.6667 11.1111H11.1111C10.4965 11.1111 9.99999 10.6146 9.99999 10C9.99999 9.38542 10.4965 8.88889 11.1111 8.88889ZM11.1111 13.3333H18.8889C19.5035 13.3333 20 13.8299 20 14.4444C20 15.059 19.5035 15.5556 18.8889 15.5556H11.1111C10.4965 15.5556 9.99999 15.059 9.99999 14.4444C9.99999 13.8299 10.4965 13.3333 11.1111 13.3333Z" fill="#111827"/>
</g>
<defs>
<clipPath id="clip0_513_6">
<rect width="20" height="15.5556" fill="white"/>
</clipPath>
</defs>
</svg>
