<svg width="20" height="20" viewBox="0 0 20 20" fill="none" xmlns="http://www.w3.org/2000/svg">
<g clip-path="url(#clip0_513_2)">
<path d="M8.69922 1.25392C8.89453 1.91408 8.51953 2.6133 7.85938 2.80861C4.75781 3.73439 2.5 6.60548 2.5 10C2.5 14.1406 5.85938 17.5 10 17.5C14.1406 17.5 17.5 14.1406 17.5 10C17.5 6.60548 15.2422 3.73439 12.1445 2.80861C11.4844 2.6133 11.1055 1.91408 11.3047 1.25392C11.5039 0.593766 12.1992 0.21486 12.8594 0.414078C16.9883 1.64455 20 5.46877 20 10C20 15.5235 15.5234 20 10 20C4.47656 20 0 15.5235 0 10C0 5.46877 3.01172 1.64455 7.14453 0.414078C7.80469 0.218766 8.50391 0.593766 8.69922 1.25392Z" fill="#111827"/>
</g>
<defs>
<clipPath id="clip0_513_2">
<rect width="20" height="20" fill="white"/>
</clipPath>
</defs>
</svg>
