<svg width="22" height="18" viewBox="0 0 22 18" fill="none" xmlns="http://www.w3.org/2000/svg">
<path d="M11.0955 1.79468L13.8177 2.82593L10.9983 3.90927L8.17882 2.82593L10.901 1.79468C10.9635 1.77038 11.033 1.77038 11.099 1.79468H11.0955ZM5.72048 3.31899V7.21482C5.67534 7.22871 5.6302 7.2426 5.58507 7.25996L2.25173 8.52385C1.49826 8.80857 0.99826 9.53427 0.99826 10.3398V14.4787C0.99826 15.2495 1.45312 15.9475 2.16145 16.26L5.49479 17.7252C5.99479 17.944 6.56076 17.944 7.06076 17.7252L10.9983 15.9926L14.9392 17.7252C15.4392 17.944 16.0052 17.944 16.5052 17.7252L19.8385 16.26C20.5434 15.9509 21.0017 15.2495 21.0017 14.4787V10.3398C21.0017 9.5308 20.5017 8.80857 19.7483 8.52038L16.4149 7.25649C16.3698 7.23913 16.3246 7.22524 16.2795 7.21135V3.31899C16.2795 2.50996 15.7795 1.78774 15.026 1.49955L11.6927 0.235657C11.2483 0.0689901 10.7587 0.0689901 10.3142 0.235657L6.9809 1.49955C6.22048 1.78774 5.72048 2.51343 5.72048 3.31899ZM14.6094 7.41968L11.7483 8.50302V5.4058L14.6094 4.30857V7.41968ZM6.37326 8.81899L9.09548 9.85024L6.27604 10.9301L3.45659 9.85024L6.17882 8.81899C6.24132 8.79468 6.31076 8.79468 6.37673 8.81899H6.37326ZM7.02604 15.9162V12.4266L9.88715 11.3294V14.6593L7.02604 15.9162ZM15.6233 8.81899C15.6858 8.79468 15.7552 8.79468 15.8212 8.81899L18.5434 9.85024L15.7205 10.9301L12.901 9.85024L15.6233 8.81899ZM19.1649 14.7322L16.4705 15.9162V12.4266L19.3316 11.3294V14.4787C19.3316 14.5898 19.2656 14.687 19.1649 14.7322Z" fill="#111827"/>
</svg>
