<svg width="18" height="18" viewBox="0 0 18 18" fill="none" xmlns="http://www.w3.org/2000/svg">
<path d="M6.75 2.8125C6.75 1.88086 7.50586 1.125 8.4375 1.125H9.5625C10.4941 1.125 11.25 1.88086 11.25 2.8125V15.1875C11.25 16.1191 10.4941 16.875 9.5625 16.875H8.4375C7.50586 16.875 6.75 16.1191 6.75 15.1875V2.8125ZM1.125 9.5625C1.125 8.63086 1.88086 7.875 2.8125 7.875H3.9375C4.86914 7.875 5.625 8.63086 5.625 9.5625V15.1875C5.625 16.1191 4.86914 16.875 3.9375 16.875H2.8125C1.88086 16.875 1.125 16.1191 1.125 15.1875V9.5625ZM14.0625 3.375H15.1875C16.1191 3.375 16.875 4.13086 16.875 5.0625V15.1875C16.875 16.1191 16.1191 16.875 15.1875 16.875H14.0625C13.1309 16.875 12.375 16.1191 12.375 15.1875V5.0625C12.375 4.13086 13.1309 3.375 14.0625 3.375Z" fill="#111827"/>
</svg>
