<svg width="20" height="20" viewBox="0 0 20 20" fill="none" xmlns="http://www.w3.org/2000/svg">
<path d="M2.85714 0C1.28125 0 0 1.28125 0 2.85714V17.1429C0 18.7188 1.28125 20 2.85714 20H17.1429C18.7188 20 20 18.7188 20 17.1429V2.85714C20 1.28125 18.7188 0 17.1429 0H2.85714ZM5.71429 8.57143C6.50446 8.57143 7.14286 9.20982 7.14286 10V14.2857C7.14286 15.0759 6.50446 15.7143 5.71429 15.7143C4.92411 15.7143 4.28571 15.0759 4.28571 14.2857V10C4.28571 9.20982 4.92411 8.57143 5.71429 8.57143ZM8.57143 5.71429C8.57143 4.92411 9.20982 4.28571 10 4.28571C10.7902 4.28571 11.4286 4.92411 11.4286 5.71429V14.2857C11.4286 15.0759 10.7902 15.7143 10 15.7143C9.20982 15.7143 8.57143 15.0759 8.57143 14.2857V5.71429ZM14.2857 11.4286C15.0759 11.4286 15.7143 12.067 15.7143 12.8571V14.2857C15.7143 15.0759 15.0759 15.7143 14.2857 15.7143C13.4955 15.7143 12.8571 15.0759 12.8571 14.2857V12.8571C12.8571 12.067 13.4955 11.4286 14.2857 11.4286Z" fill="white" fill-opacity="0.32"/>
</svg>
