<svg width="14" height="12" viewBox="0 0 14 12" fill="none" xmlns="http://www.w3.org/2000/svg">
<path d="M0.5 1C0.5 0.446875 0.914955 0 1.42857 0H12.5714C13.085 0 13.5 0.446875 13.5 1C13.5 1.55313 13.085 2 12.5714 2H1.42857C0.914955 2 0.5 1.55313 0.5 1ZM0.5 6C0.5 5.44687 0.914955 5 1.42857 5H12.5714C13.085 5 13.5 5.44687 13.5 6C13.5 6.55313 13.085 7 12.5714 7H1.42857C0.914955 7 0.5 6.55313 0.5 6ZM13.5 11C13.5 11.5531 13.085 12 12.5714 12H1.42857C0.914955 12 0.5 11.5531 0.5 11C0.5 10.4469 0.914955 10 1.42857 10H12.5714C13.085 10 13.5 10.4469 13.5 11Z" fill="#7582EB"/>
</svg>
