<svg width="20" height="20" viewBox="0 0 20 20" fill="none" xmlns="http://www.w3.org/2000/svg">
<path d="M6.875 2.1875V3.75H13.125V2.1875C13.125 2.01562 12.9844 1.875 12.8125 1.875H7.1875C7.01562 1.875 6.875 2.01562 6.875 2.1875ZM5 3.75V2.1875C5 0.980469 5.98047 0 7.1875 0H12.8125C14.0195 0 15 0.980469 15 2.1875V3.75V5V18.75H5V5V3.75ZM2.5 3.75H3.75V18.75H2.5C1.12109 18.75 0 17.6289 0 16.25V6.25C0 4.87109 1.12109 3.75 2.5 3.75ZM17.5 18.75H16.25V3.75H17.5C18.8789 3.75 20 4.87109 20 6.25V16.25C20 17.6289 18.8789 18.75 17.5 18.75Z" fill="#5D626C"/>
</svg>
