<svg width="512" height="484" viewBox="0 0 512 484" fill="none" xmlns="http://www.w3.org/2000/svg">
<path d="M377.9 105.9L500.7 228.7C507.9 235.9 512 245.8 512 256C512 266.2 507.9 276.1 500.7 283.3L377.9 406.1C371.5 412.5 362.9 416 353.9 416C335.2 416 320 400.8 320 382.1V320H192C174.3 320 160 305.7 160 288V224C160 206.3 174.3 192 192 192H320V129.9C320 111.2 335.2 96 353.9 96C362.9 96 371.5 99.6 377.9 105.9ZM160 96H96C78.3 96 64 110.3 64 128V384C64 401.7 78.3 416 96 416H160C177.7 416 192 430.3 192 448C192 465.7 177.7 480 160 480H96C43 480 0 437 0 384V128C0 75 43 32 96 32H160C177.7 32 192 46.3 192 64C192 81.7 177.7 96 160 96Z" fill="#7582EB"/>
</svg>
