<svg width="160" height="42" viewBox="0 0 160 42" fill="none" xmlns="http://www.w3.org/2000/svg">
<g clip-path="url(#clip0_1_15)">
<path d="M47.6992 20.9977L36.0973 41.3024H14.8954L17.0538 37.5493H33.9527L43.4101 20.9977L35.0434 6.36208L37.1972 2.62296L47.6992 20.9977Z" stroke="#505050" stroke-width="2" stroke-miterlimit="10"/>
<path d="M12.8981 0.688293L1.29617 20.9884L11.7476 39.2887L13.9013 35.5682L10.7075 29.9874L25.1949 4.48322H31.8496L34.0126 0.688293H12.8981ZM8.5583 26.1878L5.58534 20.9884L15.0427 4.44137H20.9196L8.5583 26.1878Z" stroke="#505050" stroke-width="2" stroke-miterlimit="10"/>
<path d="M33.152 9.79892L19.0649 34.1265H31.9922L39.3464 20.0908L33.152 9.79892Z" stroke="#505050" stroke-width="2" stroke-miterlimit="10"/>
</g>
<path d="M64.18 31V11.4H70.662C72.0153 11.4 73.2847 11.6567 74.47 12.17C75.6553 12.674 76.696 13.3787 77.592 14.284C78.488 15.18 79.188 16.2207 79.692 17.406C80.2053 18.582 80.462 19.8467 80.462 21.2C80.462 22.5533 80.2053 23.8227 79.692 25.008C79.188 26.184 78.488 27.2247 77.592 28.13C76.696 29.026 75.6553 29.7307 74.47 30.244C73.2847 30.748 72.0153 31 70.662 31H64.18ZM66.532 28.648H70.662C71.6887 28.648 72.65 28.4567 73.546 28.074C74.4513 27.682 75.2447 27.1453 75.926 26.464C76.6073 25.7827 77.1393 24.994 77.522 24.098C77.914 23.1927 78.11 22.2267 78.11 21.2C78.11 20.1733 77.914 19.212 77.522 18.316C77.1393 17.4107 76.6027 16.6173 75.912 15.936C75.2307 15.2547 74.442 14.7227 73.546 14.34C72.65 13.948 71.6887 13.752 70.662 13.752H66.532V28.648ZM83.3852 31V11.4H85.7372V31H83.3852ZM96.4297 31.364C95.375 31.364 94.3577 31.2007 93.3777 30.874C92.3977 30.538 91.539 30.062 90.8017 29.446C90.0737 28.83 89.5557 28.0973 89.2477 27.248L91.4457 26.422C91.6323 26.9447 91.9777 27.402 92.4817 27.794C92.995 28.1767 93.597 28.4753 94.2877 28.69C94.9783 28.9047 95.6923 29.012 96.4297 29.012C97.2697 29.012 98.049 28.8767 98.7677 28.606C99.4957 28.326 100.084 27.9387 100.532 27.444C100.98 26.9493 101.204 26.3707 101.204 25.708C101.204 25.0267 100.97 24.4713 100.504 24.042C100.037 23.6033 99.4397 23.258 98.7117 23.006C97.9837 22.7447 97.223 22.544 96.4297 22.404C95.0763 22.18 93.863 21.8627 92.7897 21.452C91.7257 21.032 90.881 20.4487 90.2557 19.702C89.6397 18.9553 89.3317 17.9707 89.3317 16.748C89.3317 15.6093 89.6583 14.6153 90.3117 13.766C90.9743 12.9167 91.847 12.2587 92.9297 11.792C94.0123 11.3253 95.179 11.092 96.4297 11.092C97.4657 11.092 98.469 11.2553 99.4397 11.582C100.42 11.8993 101.283 12.366 102.03 12.982C102.776 13.598 103.313 14.3493 103.64 15.236L101.414 16.048C101.227 15.516 100.877 15.0587 100.364 14.676C99.8597 14.284 99.2623 13.9853 98.5717 13.78C97.8903 13.5653 97.1763 13.458 96.4297 13.458C95.599 13.4487 94.8243 13.584 94.1057 13.864C93.387 14.144 92.8037 14.5313 92.3557 15.026C91.9077 15.5207 91.6837 16.0947 91.6837 16.748C91.6837 17.532 91.889 18.134 92.2997 18.554C92.7197 18.9647 93.289 19.2727 94.0077 19.478C94.7263 19.6833 95.5337 19.8653 96.4297 20.024C97.699 20.2387 98.875 20.5793 99.9577 21.046C101.04 21.5033 101.908 22.1147 102.562 22.88C103.224 23.6453 103.556 24.588 103.556 25.708C103.556 26.8467 103.224 27.8407 102.562 28.69C101.908 29.5393 101.04 30.1973 99.9577 30.664C98.875 31.1307 97.699 31.364 96.4297 31.364ZM123.867 31.406L121.571 29.11C120.769 29.8007 119.859 30.342 118.841 30.734C117.833 31.1167 116.765 31.308 115.635 31.308C114.301 31.308 113.05 31.0467 111.883 30.524C110.717 29.992 109.69 29.264 108.803 28.34C107.917 27.4067 107.221 26.324 106.717 25.092C106.223 23.86 105.975 22.544 105.975 21.144C105.975 19.744 106.223 18.4327 106.717 17.21C107.221 15.978 107.917 14.8953 108.803 13.962C109.69 13.0287 110.717 12.3007 111.883 11.778C113.05 11.246 114.301 10.98 115.635 10.98C116.97 10.98 118.216 11.246 119.373 11.778C120.54 12.3007 121.567 13.0287 122.453 13.962C123.34 14.8953 124.031 15.978 124.525 17.21C125.029 18.4327 125.281 19.744 125.281 21.144C125.281 22.3387 125.095 23.468 124.721 24.532C124.357 25.596 123.849 26.562 123.195 27.43L125.533 29.74L123.867 31.406ZM115.635 28.956C116.401 28.956 117.152 28.8253 117.889 28.564C118.627 28.2933 119.285 27.906 119.863 27.402L117.259 24.812L118.925 23.132L121.445 25.68C121.931 25.036 122.299 24.3267 122.551 23.552C122.803 22.768 122.929 21.9653 122.929 21.144C122.929 20.0707 122.738 19.0627 122.355 18.12C121.982 17.1773 121.459 16.3467 120.787 15.628C120.115 14.9093 119.336 14.3493 118.449 13.948C117.572 13.5373 116.634 13.332 115.635 13.332C114.618 13.332 113.666 13.542 112.779 13.962C111.902 14.3727 111.127 14.942 110.455 15.67C109.793 16.3887 109.27 17.2193 108.887 18.162C108.514 19.0953 108.327 20.0893 108.327 21.144C108.327 22.2173 108.519 23.2253 108.901 24.168C109.284 25.1107 109.811 25.946 110.483 26.674C111.155 27.3927 111.93 27.9527 112.807 28.354C113.694 28.7553 114.637 28.956 115.635 28.956ZM128.328 31V11.4H140.354V13.752H130.68V19.324H138.604V21.676H130.68V28.648H140.354V31H128.328ZM150.324 31.364C149.27 31.364 148.252 31.2007 147.272 30.874C146.292 30.538 145.434 30.062 144.696 29.446C143.968 28.83 143.45 28.0973 143.142 27.248L145.34 26.422C145.527 26.9447 145.872 27.402 146.376 27.794C146.89 28.1767 147.492 28.4753 148.182 28.69C148.873 28.9047 149.587 29.012 150.324 29.012C151.164 29.012 151.944 28.8767 152.662 28.606C153.39 28.326 153.978 27.9387 154.426 27.444C154.874 26.9493 155.098 26.3707 155.098 25.708C155.098 25.0267 154.865 24.4713 154.398 24.042C153.932 23.6033 153.334 23.258 152.606 23.006C151.878 22.7447 151.118 22.544 150.324 22.404C148.971 22.18 147.758 21.8627 146.684 21.452C145.62 21.032 144.776 20.4487 144.15 19.702C143.534 18.9553 143.226 17.9707 143.226 16.748C143.226 15.6093 143.553 14.6153 144.206 13.766C144.869 12.9167 145.742 12.2587 146.824 11.792C147.907 11.3253 149.074 11.092 150.324 11.092C151.36 11.092 152.364 11.2553 153.334 11.582C154.314 11.8993 155.178 12.366 155.924 12.982C156.671 13.598 157.208 14.3493 157.534 15.236L155.308 16.048C155.122 15.516 154.772 15.0587 154.258 14.676C153.754 14.284 153.157 13.9853 152.466 13.78C151.785 13.5653 151.071 13.458 150.324 13.458C149.494 13.4487 148.719 13.584 148 13.864C147.282 14.144 146.698 14.5313 146.25 15.026C145.802 15.5207 145.578 16.0947 145.578 16.748C145.578 17.532 145.784 18.134 146.194 18.554C146.614 18.9647 147.184 19.2727 147.902 19.478C148.621 19.6833 149.428 19.8653 150.324 20.024C151.594 20.2387 152.77 20.5793 153.852 21.046C154.935 21.5033 155.803 22.1147 156.456 22.88C157.119 23.6453 157.45 24.588 157.45 25.708C157.45 26.8467 157.119 27.8407 156.456 28.69C155.803 29.5393 154.935 30.1973 153.852 30.664C152.77 31.1307 151.594 31.364 150.324 31.364Z" fill="#505050"/>
<defs>
<clipPath id="clip0_1_15">
<rect width="48" height="42" fill="white" transform="translate(0.5)"/>
</clipPath>
</defs>
</svg>
